/* XPM */
static char *eadb7deffe214289a0c35d2935df1533c1dok9hpri4tL1VH[] = {
/* columns rows colors chars-per-pixel */
"50 50 247 2 ",
"   c #07337E",
".  c #14467B",
"X  c #103A90",
"o  c #003FAB",
"O  c #003CBC",
"+  c #0B4886",
"@  c #144986",
"#  c #1B568A",
"$  c #0A4898",
"%  c #154797",
"&  c #1B5394",
"*  c #15559B",
"=  c #19579A",
"-  c #265688",
";  c #234E97",
":  c #235493",
">  c #23599A",
",  c #255895",
"<  c #30578B",
"1  c #33668B",
"2  c #28619C",
"3  c #366599",
"4  c #296486",
"5  c #0145A3",
"6  c #0044AB",
"7  c #024BAC",
"8  c #0A4CAA",
"9  c #064AA6",
"0  c #164CA7",
"q  c #0953A9",
"w  c #1455A7",
"e  c #155AA3",
"r  c #1354AA",
"t  c #1B5AAA",
"y  c #1B57A3",
"u  c #034CB3",
"i  c #0A4DB2",
"p  c #0248B8",
"a  c #0C53BC",
"s  c #0A56B7",
"d  c #1558BA",
"f  c #114FB4",
"g  c #2359A9",
"h  c #265EB4",
"j  c #3459A0",
"k  c #1A63B6",
"l  c #3564A5",
"z  c #2665B8",
"x  c #2D69B1",
"c  c #446C9A",
"v  c #49739D",
"b  c #466AA7",
"n  c #577DA8",
"m  c #4B75B7",
"M  c #5077AF",
"N  c #034DC4",
"B  c #044BCB",
"V  c #0B53C2",
"C  c #0452CB",
"Z  c #0C54CB",
"A  c #0755C4",
"S  c #135CC3",
"D  c #145CCB",
"F  c #1A5CC9",
"G  c #165AC3",
"H  c #0353D4",
"J  c #0B54D4",
"K  c #0C59D4",
"L  c #0B54DB",
"P  c #0D5ADA",
"I  c #0656D9",
"U  c #135CD6",
"Y  c #1356DD",
"T  c #145CDC",
"R  c #1458D6",
"E  c #094ED5",
"W  c #295DC5",
"Q  c #1B62CD",
"!  c #1563C6",
"~  c #1C64D4",
"^  c #1461DD",
"/  c #1C63DB",
"(  c #1C6ADA",
")  c #1665D4",
"_  c #0F62DB",
"`  c #246CCB",
"'  c #296BCC",
"]  c #276AC3",
"[  c #2C77CA",
"{  c #3575C7",
"}  c #2264D3",
"|  c #246BD3",
" . c #2365DB",
".. c #276AD9",
"X. c #2872D7",
"o. c #327DDD",
"O. c #396ED9",
"+. c #0E5CE3",
"@. c #1356E0",
"#. c #145CE3",
"$. c #1A5CE3",
"%. c #155EE8",
"&. c #1C5CE9",
"*. c #1857E4",
"=. c #235DE9",
"-. c #0E62E1",
";. c #1562E3",
":. c #1B63E4",
">. c #1C6AE4",
",. c #1563EA",
"<. c #1B64EC",
"1. c #1D6CED",
"2. c #146CE7",
"3. c #1E71E9",
"4. c #1B65F3",
"5. c #166AF3",
"6. c #1B6BF4",
"7. c #1B66FC",
"8. c #1C6CFB",
"9. c #1766F7",
"0. c #1D73F5",
"q. c #1B71F8",
"w. c #1571F7",
"e. c #2166E4",
"r. c #236BE3",
"t. c #2165EB",
"y. c #236CEC",
"u. c #296DEC",
"i. c #296AE6",
"p. c #2472EC",
"a. c #2672E5",
"s. c #226BF4",
"d. c #216CFC",
"f. c #2569F7",
"g. c #2473F4",
"h. c #2C72F2",
"j. c #2473FD",
"k. c #2777FA",
"l. c #3277F7",
"z. c #3173E2",
"x. c #4D7CC9",
"c. c #5C85A5",
"v. c #5482B9",
"b. c #688BB9",
"n. c #7198BA",
"m. c #3B83D8",
"M. c #3A84E7",
"N. c #3786FB",
"B. c #2E82F2",
"V. c #458BD7",
"C. c #588DCC",
"Z. c #7799C8",
"A. c #7B9CD6",
"S. c #6B90C4",
"D. c #7EA8C1",
"F. c #4697EB",
"G. c #438CFF",
"H. c #428BF4",
"J. c #4996F9",
"K. c #529DFF",
"L. c #569AF5",
"P. c #5092EB",
"I. c #59A5FF",
"U. c #5CABFF",
"Y. c #57A4F7",
"T. c #57A5EA",
"R. c #67ACFC",
"E. c #6BB5FF",
"W. c #69B7FE",
"Q. c #73BBFF",
"!. c #79C7FF",
"~. c #6DC5FF",
"^. c #99B9D9",
"/. c #89ACD3",
"(. c #84ABE0",
"). c #97BAE9",
"_. c #8EB6EC",
"`. c #A3BCF1",
"'. c #84CCFF",
"]. c #91C9F0",
"[. c #B5CDEC",
"{. c #B8D4EA",
"}. c #AAC7F5",
"|. c #B4CCF6",
" X c #BAD6FA",
".X c #ADCEED",
"XX c #9DC4D5",
"oX c #D4CFCD",
"OX c #CAD1CD",
"+X c #D2CED3",
"@X c #CDD6D8",
"#X c #D5D5D5",
"$X c #D9D5D6",
"%X c #DBDBD5",
"&X c #D5D4DA",
"*X c #DAD6DA",
"=X c #D4DADA",
"-X c #DCDBDC",
";X c #D6DBD3",
":X c #CFD0D0",
">X c #E1DDDD",
",X c #E1D7DC",
"<X c #DCE1DA",
"1X c #E4E4DD",
"2X c #E6E5DD",
"3X c #CCDAE6",
"4X c #D4DBE2",
"5X c #DDDCE2",
"6X c #D7DAE8",
"7X c #CBDDFC",
"8X c #C4DBF4",
"9X c #D0DBFB",
"0X c #E2DEE2",
"qX c #E6DEE5",
"wX c #DCE2E3",
"eX c #D8E5EB",
"rX c #CCECFE",
"tX c #C8E4F9",
"yX c #DEEAF2",
"uX c #D4E5FD",
"iX c #DCE6FD",
"pX c #D2EAFE",
"aX c #DBECFE",
"sX c #D9E4F3",
"dX c #DBF3FF",
"fX c #D5F2FF",
"gX c #E4E2E4",
"hX c #E9E4E5",
"jX c #E5EAE4",
"kX c #EAECE6",
"lX c #E5E5EA",
"zX c #EBE6EA",
"xX c #E5EBEB",
"cX c #ECEAEC",
"vX c #F2ECED",
"bX c #F0EAE8",
"nX c #EBF1EC",
"mX c #F2F4EC",
"MX c #E5EBF4",
"NX c #EDECF2",
"BX c #E4EDFD",
"VX c #E9E9F6",
"CX c #F2EDF2",
"ZX c #E2F3FE",
"AX c #EAF7FD",
"SX c #F4F2F5",
"DX c #F6F6F9",
/* pixels */
"w.w.1.6.f.d.d.d.9.q.5.2.9.%.*.*.) ) D D  .} F W V G F Q } F ~ / t.&.Y R T %.7.7.7.4.d.6.6.7.7.8.7.8.",
"w.w.0.6.6.d.7.7.8.9.q.6.4.%.$.;.( ! A A F F V V N f a G G Q F ~ e.t.<.$.&.s.d.d.d.7.6.<.6.s.d.7.7.7.",
"8.8.8.8.6.4.d.7.7.7.5.y.r.a.s.i.S s u 7 i o o p a i o 7 o 6 6 6 V ) r.t.f.f.f.f.f.8.8.9.6.8.s.7.9.8.",
"d.d.d.8.6.4.7.7.7.7.4.p.a./ K p u s ! X.H.K.I.K.K.K.K.K.P.M.' d 7 u ~ l.h.=.=.l.7.s.8.q.8.8.8.8.8.8.",
"d.d.d.8.5.6.6.6.7.d.s.:.K p A ( N.U.E.I.H.o.o.H.o.M.L.I.E.E.E.E.K.[ 7 u ~ u.y.3.s.s.7.8.8.9.8.q.8.8.",
"8.d.8.8.6.5.6.1.h.s.Y B C ( B.J.J.M.| ' ] ] z z z k k t [ x.L.K.Q.Q.L.' i p D ( h.f.1.8.8.8.q.8.8.8.",
"q.q.q.9.6.6.y.r.i.U Z T g.N.N.X.[ z z h 0 % ; ; : : g ; g g h h { L.'.'.Y.k q s / y.6.8.8.6.q.5.w.8.",
"2.q.q.9.4.6.y.r.p 6 e.G.l.a.o.z e & & m A.}. X}.[. X X`.(.C.b ; 0 h x.R.'.!.m.q 7 ( y.s.6.5.j.6.8.9.",
"0.0.q.5.d.h.>.C A ( l.a.~ ' t & b Z.}.7XBXBXsX6X6XAXAXpXuXtX X`.b ; g h P.R.~.F.k 5 U :.p.0.-.0.5.9.",
"q.q.0.5.k.2.H N >.a.B.~ ' = 3 (.[.9XiXiXVX6X5XkX1XgX<X@XMXAXBX9X7X).x.; t { T.~.T.9 u ) ;.g.3.2.w.q.",
"7.9.j.4.y.K C _ 0.^ ~ z @ S..XsXeXMXNXMX5X&X<XcXnX<X<X<XcXNXqX6XdXdX|._.= e x W.!.Y.7 s r.^ k.6.8.q.",
"d.4.j.s.H C _ p.p.r.] % ).rX3XwXxXkXjX%X=XgXjXxXjX<X<XjXkX%XoX-X<XnXAX X).3 e e T.'.L.7 D >.5.5.w.q.",
"j.7.8.,.C ) e.i.a.f $ ).rXeX#X<XnXjX-X=XwXVXxXwX@X<X<XnXjX%X%XhXmX1XOXeXdXrX< , x W.'.m.u C q.j.8.9.",
"8.k.,.I P e.i.z.{ % ).fXeX@XhXhXjX%X=XgXVXlXwX4XeXyXnXwX;XjXkXkXqX$X1X-XMXiX|.. l x R.W.k A 3.0.8.w.",
"6.k.-.C :.i.i.W X A.uXiXOXMXlXlXgXgXgXzXcXqX,XcXnXkX>X>X,XvXvXqX+XlXzXDXVX3XiX|.. 2 V.!.F.5 D ) 8.w.",
"0.2.H H j.i.O.% n iXiX@X6X6XDX5XOX0XCXzXqX,X,XvXvX>X$XhXzXCXqX&X0XCXCXqX$X0XMXZX/.. x T.!.k 5 ..2.8.",
"3.P I ,.<.i.W > |.aX*X=XNXgXxX$X0XNXcX-X&XqXcXCX0X$X>XcXvX0X*X-XxXcXzX>X,XqXjXMX Xc h { Q.T.q a p.6.",
"( N H 6.s. .g S.iX3X5XSXCX=X-X5XzXcXgX5XgXNXcXgX*XqXcXcXgX%X>XcXgX-X*X>XbXbX1XwXsX`.  { V.!.] u p.0.",
"~ N I k.y.} = }.uX3XSXSX-X$XgXcXcX0X-XqXcXcXgX-X-XcXNX-X$X1XcXcXgX*X$XhXvX2X%X=XBXuXm % V.W.P.i ( p.",
") a #.h.T h l  XsXVXSX-X$XgXcXSX5X*X5XcXzX-X*XgXcXcXgX*X-XcXcXgX>X,XhXvXhX,X%XwXAXaXA.& { E.I.f U 1.",
"D V :.>.F y S.rXBXCX*X+X2XvXgXlX*XgXcXcX5X*X5XcXcXgX$XgXcXcXgX%X%XhXzX0X%X%XgXVXsXiX).l z L.Q.! Z ( ",
"D K y.r.' x |.AXsX*X+X>XhXjX&X&X5XcXcX5X*X0XcXcX5X*X>XcXCXgX-XgXhXzXhX-X1XkXNXqX+XiXaXb z ` !.o.a / ",
"V D u. .[ l rXBX*X,XhXCX1X%X6XqXcXcX0X*X-XcXcX0X*XgXcXcXgX%X>XcXhXhX0X<XjXcXqX5X0XVXaXS.0 X.R.H.p Q ",
"p / u.~ z l rX4X0XqXvXvX%X$X*XSXDX0X&X-XcXSXlX*X5XcXcXgX-X-XlXvXhX0XqXcXnXjX5X5XCXVXuXS.$ } W.I.u D ",
"p T u...g M 7XeX0XCXzX,XoX>XlXlX5X5XgXcXcX5X-XgXSXcX>X$X5XcXcX1XqX>XbXcXjX;X5XVXvX5XZXZ.0 Q U.U.u d ",
"p  .t...g C.rXwXcXhX,X,X>X2XlXqX*X0XcXcXgX*X0XcXvXlX-X-XjXzXhX-XqXcXvXqX;X-XqXcXbX-XaX/.0 | U.U.7 s ",
"N e.e...0 v.rXyXcX%X*X>XbXjX-X*X5XzXcX0X&X-XzXcXgX5XgXcXcXgX*X,XzXCXlX,X;XkXxXqXqX-XdX_.$ } I.U.s S ",
"B e.e...f v.fXAXwX=XgXhXcX1X*X0XzXcX0X&X-XcXNXgX*X-XkXSXjX#X*XvXzXhX-X-X1XmXlX&X0XlXAX(.$ ~ U.U.s d ",
"Z $.t.i.d x  XBX4XgXxXxX*X5XqXvXcX0X*X-XzXcXgX-XgXgXcXgX-X$XgXSXgX0X0XqXkX2X5X*XqXMXfXb.r X.I.J.s D ",
"Y R u.i.W X Z.7XeXcXgXgX&XqXNXSX5X*XgXNXcX-X*X5XcXcXgX*X-XcXvXgX5X5XzXzX2XoX5XcXlXBX.X3 t | U.F.p Z ",
"$.B f.h. .X b 8XyXnX=X-X0XlXCXzX*XgXcXzX0X*X-XgXgXgX>X-XgXCXcX$XgXlXzX2X<X;XgXcXVXsXZ.- k | R.M.A ) ",
"T E u.=. .o ; /.dXyX@XwXNXqXzXoX*XcXSX&X+X0XCXzX0X-X>XkXcXcXwX-XcXvX0XoX;XbXcXlXsX[.3 @ z ` I.S A ^ ",
" .Z T h.r.F $ 2 .X{.yX<X2X1X>X1XcXcX0X*X-XhXbXqX,X,X>XvXhX-X-XgXcXcX%X%X2XvXqXsXuXb.: % z M.J.A K T ",
"i.Z J 2.1.) 7 $ 3 rXdXDXnX<X%X1XVX0X-X0XhXhX>X>X>XhXvXkXwX*XwXxXnXoX1X2XkXxX5X7X^.j X z [ J.M.N T %.",
" .T T :.a.( S * , c.dXeX@X&XSXNX5X&X&XVXNX5X&X5XcXxX0X*X5XzXcX0XwXcXkXkXjX=X3X^.v . % ] X.I.i.N ;.>.",
"h.:.P P p.a.Q $ > . c.8X8XyXeXlX5X5XlXNXNX5X=XwXxXlX-X*X0XVXlX5X5XMX5XeX3XsX.X< @ % r G M.G.Z T $.<.",
"g.1.I K y.r.X.s $ > - n 8XdXiX3XwXyXcXlX&X$XjXvX2X%X,X2XbXhX>X*XeXAXeXpX{./.1 . = q ! ( K.e.O =.#.4.",
"<.1.+.P ^ ( z.| q % : # v ^. XaXyXMXxX@X$XgXzXhX%X>XhXzXhX>XjXxXyXdXuX[.n.1 2 e e s ( N.G.E p =.$.4.",
"d.f.#.J J / >.) d 5 $ = : < b.{.rXeX3XeXMXNXgXoX$XzXCXzX=X=XeXZXuXfX/.c 1 # = $ s ) 3.N.<.E @.$.%.4.",
"7.k.5.#.J ;.i.a.( S f r > : - c D.XXtXfXaXeX6XsXVXVX6X3XsXZXpX{./.v.- , : $ $ ! ( 3.p.g.H L s.@.s.d.",
"8.7.s.1.Y J ;.>.>.( D i r g > @ 4 4 4 n.]. XpXtXaXtX XtX X^.c.1 3 : & g w 8 S  .3.B.j.H I %.%.$.s.s.",
"9.6.7.6.;.I P T 1.1./ D i 5 $ = + # # # 4 4 3 c.b.c.v v 1 - # 2 % t t 8 f G  .i.g.6.%.+.+.%.2.<.s.f.",
"9.7.s.j.1.P H I ,.t.y. .! d r $ $ = * * + + # 2 @ # 2 # # * & $ d d i 6 u  .h.l.s.Y @.%.;.,.6.1.s.6.",
"7.8.8.0.g.,.P P I <.f.h.u.( S u q q q e e e = = * = = = e k t r 7 s F ( e.i.:.$.T L +.&.#.,.s.5.q.s.",
"7.d.8.6.6.1.,.$.*.Y *.t.p.r.( Q a f 8 8 r r w y t e t t r 8 8 i S ) ) >.y.g.:.L L *.,.%.,.<.6.6.8.s.",
"7.q.8.5.1.6.5.<.=.*.Y Y :.r.>.3.a.} F i i 8 9 8 9 9 8 i u i F  .a.>.2.1.1.#.+.L %.<.,.*.4.6.7.8.s.8.",
"9.8.8.5.5.6.s.&.*.=.=.Y K ^ ( 2.y.>.>.(  ...} } } .. .~ ^ ( >.1.>.>.3.1.-.H I 4.,.<.<.4.s.s.8.j.q.8.",
"8.6.8.q.5.5.8.s.=.=.&.&.:.^ _ -.,.1.y.f.h.h...i.i.e.e.r.y.3.g.g.>.^ _ I P ,.,.+.+.%.<.s.7.7.d.d.8.8.",
"d.7.d.8.8.9.q.9.d.s.&.*.#.*.T T *.*.$.$.t.y.u.u.t.e.$.e.t.:.;.^ P P T T #.%.,.,.4.4.4.7.d.d.8.8.8.8.",
"j.6.8.8.8.9.q.7.8.8.4.*.#.T T $.*.Y Y Y @.Y @.@.Y L Y T T T R R U U T ;.:.<.<.4.4.d.d.d.f.7.s.9.8.q."
};
