/* XPM */
static char *e83a18f90ada4c80a9a3a1aa3378d232YfzLw8iES04dQl4s[] = {
/* columns rows colors chars-per-pixel */
"50 50 253 2 ",
"   c #363172",
".  c #462C77",
"X  c #49397A",
"o  c #5A3478",
"O  c #532C6C",
"+  c #6A316A",
"@  c #663573",
"#  c #7A3571",
"$  c #732E6A",
"%  c #5E2959",
"&  c #71507B",
"*  c #941D22",
"=  c #BD1A2A",
"-  c #B11933",
";  c #A72737",
":  c #BE2937",
">  c #B42731",
",  c #9F2232",
"<  c #DA141C",
"1  c #C81B2A",
"2  c #DD1C2B",
"3  c #D91826",
"4  c #C61E36",
"5  c #DA1C32",
"6  c #D30F23",
"7  c #E4162B",
"8  c #EC172C",
"9  c #E51A2D",
"0  c #E91A2E",
"q  c #E11824",
"w  c #E41B32",
"e  c #EA1C32",
"r  c #E81938",
"t  c #F21B31",
"y  c #CA2429",
"u  c #D9232C",
"i  c #C72738",
"p  c #D42332",
"a  c #D72639",
"s  c #DE393D",
"d  c #E4222C",
"f  c #E32334",
"g  c #EA2433",
"h  c #EB2937",
"j  c #EC2C3A",
"k  c #E82739",
"l  c #F12A3B",
"z  c #EB333C",
"x  c #EB393D",
"c  c #F1333D",
"v  c #E3141C",
"b  c #F0473E",
"n  c #C2423F",
"m  c #903157",
"M  c #AB2A48",
"N  c #B92845",
"B  c #BB3248",
"V  c #A32F59",
"C  c #B22F53",
"Z  c #A53457",
"A  c #B73756",
"S  c #A23248",
"D  c #893268",
"F  c #983664",
"G  c #862E6A",
"H  c #A83865",
"J  c #B43968",
"K  c #B11F44",
"L  c #C62C47",
"P  c #CD3647",
"I  c #EC3340",
"U  c #EE3B43",
"Y  c #E53848",
"T  c #F23543",
"R  c #F23D46",
"E  c #F33345",
"W  c #CA3C62",
"Q  c #AF4D72",
"!  c #9C567A",
"~  c #D14A52",
"^  c #EB4449",
"/  c #F4434A",
"(  c #F44A4C",
")  c #F54747",
"_  c #EB524D",
"`  c #F8534D",
"'  c #FA4952",
"]  c #EC5656",
"[  c #FB5B5B",
"{  c #F75754",
"}  c #DF665A",
"|  c #F8655D",
" . c #E3615A",
".. c #CF5169",
"X. c #FD5D63",
"o. c #FA5B61",
"O. c #EE5D60",
"+. c #D96878",
"@. c #D66670",
"#. c #E86A64",
"$. c #F76563",
"%. c #F47271",
"&. c #FD877B",
"*. c #3A3B89",
"=. c #353B94",
"-. c #2E3B97",
";. c #383EA0",
":. c #463785",
">. c #523786",
",. c #423CA2",
"<. c #603988",
"1. c #394799",
"2. c #344894",
"3. c #024AAB",
"4. c #044CB4",
"5. c #0649B9",
"6. c #0854B9",
"7. c #1356BA",
"8. c #0C51B5",
"9. c #2B4DA9",
"0. c #3847A8",
"q. c #2951AA",
"w. c #3756AA",
"e. c #3656B9",
"r. c #2D53BA",
"t. c #3962B5",
"y. c #3364B1",
"u. c #45458A",
"i. c #5A488C",
"p. c #464999",
"a. c #43519C",
"s. c #68478B",
"d. c #765691",
"f. c #4446A4",
"g. c #4555A7",
"h. c #4456B7",
"j. c #4665B5",
"k. c #4B68AC",
"l. c #034CC6",
"z. c #0C54C3",
"x. c #0756C9",
"c. c #1659C8",
"v. c #094ED4",
"b. c #0A5CD4",
"n. c #0C57D8",
"m. c #1455D5",
"M. c #145DD2",
"N. c #1454DB",
"B. c #135BDC",
"V. c #1A5BDD",
"C. c #1B5AD6",
"Z. c #124BCE",
"A. c #2A5BC9",
"S. c #345BC5",
"D. c #275FD8",
"F. c #1965C9",
"G. c #1563DB",
"H. c #1D64DD",
"J. c #1867D8",
"K. c #1268D9",
"L. c #2568CB",
"P. c #3462C9",
"I. c #2B64D3",
"U. c #2868D9",
"Y. c #3667D7",
"T. c #2A73D8",
"R. c #3677D9",
"E. c #3675C7",
"W. c #1555E2",
"Q. c #145CE3",
"!. c #1A5DE5",
"~. c #1A5DE9",
"^. c #1658E8",
"/. c #1D5BF1",
"(. c #235CE7",
"). c #1463E3",
"_. c #1C63E4",
"`. c #1C6BE5",
"'. c #1B63EC",
"]. c #1C6BEC",
"[. c #1567EB",
"{. c #1971E9",
"}. c #1C64F3",
"|. c #166CF4",
" X c #1B6BF5",
".X c #1C66FA",
"XX c #156DFB",
"oX c #1B6CFC",
"OX c #1565F5",
"+X c #1D71F5",
"@X c #1471FF",
"#X c #1C71FD",
"$X c #1573F1",
"%X c #0F60E3",
"&X c #2565E4",
"*X c #246BE4",
"=X c #2365EA",
"-X c #236DEC",
";X c #2B6AE6",
":X c #336BE4",
">X c #2472EB",
",X c #2A73E7",
"<X c #3475E8",
"1X c #236CF4",
"2X c #2B6CF3",
"3X c #226BFC",
"4X c #2567F9",
"5X c #2774F7",
"6X c #307DF4",
"7X c #435CC7",
"8X c #4475C9",
"9X c #87598C",
"0X c #A65992",
"qX c #906493",
"wX c #AC6894",
"eX c #AF78A4",
"rX c #8E6AAA",
"tX c #C66B86",
"yX c #D56A85",
"uX c #D77494",
"iX c #CA7A9C",
"pX c #EE768A",
"aX c #C56C94",
"sX c #3886DA",
"dX c #3A89F8",
"fX c #3D8AEA",
"gX c #4584D6",
"hX c #5385DA",
"jX c #4995E9",
"kX c #5896E9",
"lX c #4389FA",
"zX c #4D93FA",
"xX c #569AFE",
"cX c #4B8CE6",
"vX c #639AF1",
"bX c #58A4FB",
"nX c #66A8FE",
"mX c #6BB5FF",
"MX c #68B7FF",
"NX c #75BCFF",
"BX c #7CC1FF",
"VX c #75C3FF",
"CX c #BA85B3",
"ZX c #FC8685",
"AX c #FF958B",
"SX c #FF9A98",
"DX c #E08195",
"FX c #D086B1",
"GX c #E287AC",
"HX c #FFAAA6",
"JX c #FFB5A6",
"KX c #E9959D",
"LX c #86C7FF",
/* pixels */
";X4XXX@XXX@XOX|. X#X X+X-X`.].`.H.M.z.5.4.4.4.4.4.c.4.8.c.A.7.A.J.&X4X4X4X4X.X4X4X4X3X.X|.{.$X$X|.XX",
"2X1XoXXXXXXX|.|.oX#X+X].>X5X-XG.z.z.4.4.F.L.T.R.R.R.T.J.7.7.3.3.c.Z.-X2X/.2X3X}.3X.X X.X].|.$XXXXX+X",
"XXXXoXoXoX X XXX@XOX|.{.J.b.5.5.z.J.fXbXbXMXMXMXMXMXVXVXMXMXcXT.7.c.6.A.(.=X2X}..X.X3X X X.XoXoXXXoX",
"@XXXoX3X3X X X XOX|.#X[.x.4.J.lXbXbXxXlXgXsXgXgXgXE.gXhXkXnXNXBXnXzXA.8.I.m.-X2X.XoX.X.X}..X3X4XoXXX",
"@XXX3X3X3X X-X X1X=Xv.l.K.dXxXlX,XR.P.S.e.w.a.a.g.1.a.y.j.t.8XhXVXVXLXkX8.3.4.T.5X4XOX.XoXOX3X3XoXoX",
"@XXXoX.X3X1X-X*XV.Z.l.>XdX<XU.S.S.e.h.f.:.. X O % % O O X X u.p.y.k.kXVXMXjX6.7._.}.oX.X[..X3X.XoXoX",
"oXoXoXoXoX-X&XI.5.C.>XdXfXT.P.g.:.o o + D F F H Z Z m F m % $ O X k.y.gXMXVXjX3.4.b. X].'.1X3XoXoXoX",
"1X1XoX3X1X&XC.5.m.<X6X;XA.S.a.o $ m F Z Z ; ; ; ; , , S S S Z m %   u.a.E.vXLXMXF.4.x.G.-X1XXX@XoXoX",
"3X3XoX1X>X&X5.c.<X5XC.A.h.:.+ F C N - > S ~ ~ ~ @.@.@.~ S * * ; A m # :.0.t.kXBXMXL.3.F.*X_.5XXX3X3X",
"3X1X+X5XG.x.l.U.U.U.Y.h.. $ V ; i L _ $.%.ZXSXHXHXHXHXJXJXAX} n > ; H # o u.2.vXVXbXF.6.z.6XXX5X#X#X",
"1X5X).{.x.l.'.;X2XS.=.o F Q > y Y $.%.%.&.ZXZX&.&.pXZXSXJXJXJXJX .* M Z D O X k.vXVXbXF.4.T.[.3XoX3X",
"3X_.>Xx.l.].'.=X:X-.<.G S y y b | $.%.$.$.$.| #.#.#.#.%.@.%.&.AXHXHXn > S H + X y.kXVXfX4.l.>X X XoX",
"'.2XK.x.x.{.2X:X,.<.G N 4 u b ` [ X.[ $.| | | | O.$.#.$. .$.o.] } &.JX} : N V # u.t.MXVXI.5.J.`. X1X",
"-X>Xx.x.K.{.;X7X>.$ C L 2 ) | { [ X.[ [ [ [ | ` | [ o.o.| $.o.$.} } #.&.{ = C m X 2.8XVXnX8.6.`. X.X",
"-X].5.c.{.U.S.f.$ H - I ' [ { O.] _ ` { { ` ` [ { ` { { { _ ] $.| ~ ~ o.%.Y L C # >.k.kXBXL.3.K.1XoX",
"].b.x.G.T.Y.0.o F K r E ' ) _ _ _ { ` ( ) ` ` ) ( ' ( ( { ] _ _ ^ { { ] [ X.i N F + p.j.VXbX6.F.1X3X",
"[.l.n.=X2XS.>.# C 4 R ' R / ) b ( ^ ) ) ) ( ( ) ( ) ( ( ( ( ' ] _ Y o.U R X.Y i B m   g.kXBXL.6.]. X",
"K.x.B.-X:X0.<.F N L ' R R ) b b ) ) ) ) R / / / / ) / / / / R ^ ^ ( Y R ) R ' a 4 V O 1.8XBXjX3.H.*X",
"J.l.Q.>XI.-.@ V 4 Y R E T ' x b x ^ x U R R b x R R R U R U R U ^ U I R / x ' Y = A $   t.nXMX8.c.`.",
"c.x.Q.-XP.*.# M L Y T c T c x x x x x x U x z x z z x I U U U U U z T T I c I R 1 B D X h.jXVXF.6.T.",
"z.m.`.U.r.  F K L I I E l j z x z z x z z z z j z z z z j z j z z I j T z j z j p N m @ f.R.NXsX4.L.",
"z.G.>XU.q.. H 4 r k I l h j c h j j j l j h l h h j k k k j k k k c k z j l E l 3 i M $ 0.P.NXsX4.F.",
"z.J.>XU.2.o Z 4 r r I r h j l j h l j h h h h h g g g h h h h h h h j g g E g l 2 a A $ ,.7XmXjX4.z.",
"c.J.>XI.0.@ M 5 9 t l r k j e j g g g g d g d g g d g g g g g g e g d g g t e d u p N G ,.Y.nXxX8.c.",
"7.J.*XY.1.@ C u 7 t 9 f d 2 e r w d 0 w 9 g g e f d e g 9 g w g d 0 d d 0 g g 9 2 p L G ,.Y.nXzX5.c.",
"c.J.,XI.0.o C a 7 7 9 7 7 q 7 7 9 7 9 9 9 7 7 9 9 9 9 9 9 9 9 0 0 0 0 0 e e e 7 d a N G ,.8XnXxX8.M.",
"x.F.>XU.9.<.A a 9 q g q 7 e 9 e 9 7 7 9 9 9 7 0 9 0 9 0 0 7 9 9 8 9 9 9 8 8 7 9 3 i M # ,.I.xXxX6.c.",
"z.K.{.U.9.<.J 4 u 9 9 9 e e e e e e e 0 0 w 0 0 0 9 0 9 0 9 9 8 9 0 9 w e 0 7 2 y : J @ 0.Y.nXzX6.C.",
"l.`.-XU.e.>.J L a d q t e 7 0 9 7 7 w 0 8 w 0 w 8 w 9 0 0 0 0 9 9 0 9 w e 7 2 u 1 B ! O e.R.nXT.z.G.",
"b.x.1X:Xr.:.0XW a u 2 g t 7 0 8 e e 8 e e 9 w 8 e 0 0 e 9 0 0 0 8 w w w e e 7 u 1 P 0X  y.T.nXD.Z._.",
"K.6.(.2XA.,.0XyXP d 9 8 r w 0 0 e r w e e 0 9 e 9 e 0 9 w 8 0 9 9 9 r w 8 t a 5 = ~ D u.t.<XxXC.B._.",
"K.b.W.(.Y.,.$ 0XP k g q 3 w 7 8 0 7 e 7 w 8 9 7 w 9 9 9 0 0 0 0 9 w w r r r k p N Q o 1.t.cXzXl.V.~.",
"{.b.n.2X:Xr.>.0X..L a f 9 3 7 e 7 9 w 0 9 9 8 0 9 w 9 d w e 0 e 0 q r r r r r - J 0X  g.E.bXT.z.!.^.",
">X).n.=X&XP.1.d.0X~ a a 2 g 7 7 0 7 0 e 9 8 8 8 9 9 w 9 8 0 r 8 9 h r r r r 4 L Q 9Xp.P.<XbX7.z._.}.",
">X`.v.Q._.<Xy.u.wXyXY 5 d g 3 k 9 0 0 8 8 8 8 8 8 8 0 7 7 e 0 9 < t 7 r r w i } ! O g.P.zX6X6.M.=X~.",
"+X1Xn.B.G.U.L.q.i.eXyXa u l g 6 5 r 8 t t 8 8 8 8 8 8 8 8 9 9 9 g 0 t 8 3 y ~ ! & p.8X<XlXB.M.m.'.~.",
"+X+XQ.B.b.K.{.L.1.d.uXpXs 1 k f u f 9 8 t 8 8 7 0 q 8 8 0 9 9 d 0 v v v u ~ @.d.  9.Y.lX,XQ.v.=X~.}.",
"@X#X'.n.b.K.{.T.9.=.9XiX~ L y p p u w e 8 8 0 7 d 0 0 e 0 9 2 u q g < y ~ tX9X  w.sXT.dX_.l.^.~.'. X",
"@XXX5X).b.b.$XJ.U.9.u.rXFXyXP i i p r r r r r w 7 r e 8 7 0 d u u 3 = ..tX9Xu.q.L.T.lXz.5.=X}.}. X.X",
"3XXX#X[.b.b.K.{.J.I.e.u.rXCXuX@.i i a r r r a 2 2 f e 7 7 9 u 1 1 ~ @.tX9X  q.<X>X{.&Xc.m.!.4X}.3XoX",
"oX#X X X).B.M.M.,X&XU.r.=.d.CXFX+.~ : y a u u 3 3 3 3 q 2 u y L ..uX0Xd.p.e.:XB.6X5X5.(.m.=X'.oXoX X",
"}.oX X X[.N.m.m.`._.6XlXS.-.u.9XDXDXpX..L : i > > i 4 i L W @.pXiXqXs.,.7X:X2X4XB.n.C.m.&XN. X[.XXXX",
"}.1X X3X1X~.~.V.n.%X).*XY.S.w.1.X & CXFXGXuXyX+.@.+.+.uXGXFXwXqXs.*.e.7XY.2X(.2Xv.N.(.N._.Q. X+X X+X",
"4X3X XoX X}.(.~.N.B.b.G.5X6XU.P.w.2.*.i.d.qXrXeXeXeXrXrXd.s.:.=.9.r.8X:X=X=XW.^.W.N.(.&X).]. X#XoX@X",
"3X3X|.XX1X.X4X4XQ.n.b.B.U._.=X*X,XI.A.e.h.f.1.2.2.2.1.0.e.r.A.I.:X;X,X*X!.N.W.W./.N.'.`.].+XXXoX@XoX",
".X3XXXoXoX3X4X/.'.).B.n.v._.1X X X5X2X&X:XD.P.S.A.A.A.I.;X=X-X5X}.}.)._.N.v./././.^.].|.+X+XXX3XXXXX",
".X3X@X@XXX3X2X4X'.%X).).N.v.W.^.'.}.2X-X2X&X;X,X<X>X-X`.{.].-X'.'.Q.B.n.n.^..X^.^.~.[.|.[. X X3XoX+X",
"oX#X@XXX|..X4X}.3X X).).'.~.W.W.^.!.~.Q.V.B._.`.[.{.+X[.[.n.B.n.%XB.Q.^.W.W.%X^.^.|.|.|.+X#XoXoX#X X",
"XXXX@XoXoXoX.X1X X|. X'.'.'.^.=XW.N.Z.m.N.W.V.V.Q.B.B.n.n.v.B.B.N.Q.^.Q.~.~.~.OX3XOXoX@XXXXXXXoXXXoX",
"XXoXoX3XoX.XoXoXoX}..X XOX~.Q.^.(.(.(.(.C.C.m.m.B.B.).Q.B.B.V.V.Q.~.Q.!.'.'.}..XoXOX.XXXXXoXXXXXoXXX"
};
