/* XPM */
static char *a53e8abec3674eb1b3ac16867bb73229D7P0WukcFfIlRiK5[] = {
/* columns rows colors chars-per-pixel */
"50 50 253 2 ",
"   c #3C593D",
".  c #4D6E3C",
"X  c #345556",
"o  c #2B5250",
"O  c #1C5376",
"+  c #1C496F",
"@  c #264968",
"#  c #275669",
"$  c #285878",
"%  c #33556C",
"&  c #326478",
"*  c #3D6868",
"=  c #435D50",
"-  c #536B4B",
";  c #4D6C4E",
":  c #657A58",
">  c #4C7368",
",  c #6C7E64",
"<  c #758B54",
"1  c #748A6B",
"2  c #D1BC19",
"3  c #D1BA2B",
"4  c #E0BD17",
"5  c #DEC715",
"6  c #FCDE0B",
"7  c #F8D808",
"8  c #E4CA17",
"9  c #F7DA18",
"0  c #EECF0A",
"q  c #FEE303",
"w  c #FEE30B",
"e  c #F9E708",
"r  c #FDE413",
"t  c #FDE41C",
"y  c #FDEA1C",
"u  c #FAE715",
"i  c #EDE118",
"p  c #D9C629",
"a  c #D9C83A",
"s  c #D3CC34",
"d  c #F4DB28",
"f  c #E7CC34",
"g  c #EED431",
"h  c #FDE523",
"j  c #FCEB24",
"k  c #FDE62B",
"l  c #FDEA2B",
"z  c #F5E728",
"x  c #FCE533",
"c  c #FCEB34",
"v  c #FDEB3C",
"b  c #F7E73A",
"n  c #FFF33D",
"m  c #F7EA2F",
"M  c #96A34F",
"N  c #A2A453",
"B  c #8C9969",
"V  c #9CAE74",
"C  c #A4B677",
"Z  c #D1BE45",
"A  c #B7C276",
"S  c #D7C547",
"D  c #DBCA56",
"F  c #D9D74E",
"G  c #E2CD4A",
"H  c #EADA49",
"J  c #E7D956",
"K  c #F0D952",
"L  c #FDEB43",
"P  c #FEEC4B",
"I  c #F6E649",
"U  c #FDF146",
"Y  c #FDED53",
"T  c #FDED5C",
"R  c #F6EA58",
"E  c #FCF154",
"W  c #FEF25B",
"Q  c #E9E552",
"!  c #DBDC78",
"~  c #D1D16F",
"^  c #E8DA67",
"/  c #E3DA77",
"(  c #F4DB6A",
")  c #DCE36B",
"_  c #FCEE63",
"`  c #FDED6B",
"'  c #F2E665",
"]  c #FDF362",
"[  c #FCF26D",
"{  c #F9F36B",
"}  c #E9E678",
"|  c #FAEA75",
" . c #FCF373",
".. c #FEF37C",
"X. c #FDF979",
"o. c #EFE566",
"O. c #0C3C94",
"+. c #0035B1",
"@. c #17488B",
"#. c #194B97",
"$. c #195598",
"%. c #19548B",
"&. c #265788",
"*. c #285499",
"=. c #296399",
"-. c #346996",
";. c #326489",
":. c #0449AC",
">. c #034BB7",
",. c #0C53BD",
"<. c #0554B8",
"1. c #1758B9",
"2. c #1855AA",
"3. c #255BAA",
"4. c #265ABA",
"5. c #1B68BC",
"6. c #2A68BB",
"7. c #3270AF",
"8. c #4B6E8C",
"9. c #647B8B",
"0. c #4D6BA3",
"q. c #024AC3",
"w. c #074DCB",
"e. c #0B53C5",
"r. c #0856C7",
"t. c #165AC8",
"y. c #0B57DB",
"u. c #0C5ADC",
"i. c #0956D6",
"p. c #155BD4",
"a. c #1356DA",
"s. c #155BDD",
"d. c #1B5CDC",
"f. c #1759D4",
"g. c #054DD5",
"h. c #215AD4",
"j. c #1A65CA",
"k. c #1B63DC",
"l. c #1766D6",
"z. c #1367D9",
"x. c #2869C6",
"c. c #3478CC",
"v. c #246DDC",
"b. c #2769D7",
"n. c #2774D9",
"m. c #3478D5",
"M. c #326DCA",
"N. c #0C59E5",
"B. c #145BE4",
"V. c #195CE2",
"C. c #135CEB",
"Z. c #1658E8",
"A. c #185EF3",
"S. c #215FE5",
"D. c #1C64E4",
"F. c #1564EC",
"G. c #1B64EC",
"H. c #1C6CEB",
"J. c #1767E6",
"K. c #1A72EC",
"L. c #1463F2",
"P. c #1B66F4",
"I. c #156AF5",
"U. c #1B6CF4",
"Y. c #1C66FA",
"T. c #1C6BFB",
"R. c #146AFC",
"E. c #1D72F4",
"W. c #1C73FB",
"Q. c #1473F6",
"!. c #0D6CF0",
"~. c #246CE4",
"^. c #236DEC",
"/. c #2669E8",
"(. c #2773E9",
"). c #347DE7",
"_. c #226BF4",
"`. c #236BFC",
"'. c #2568F8",
"]. c #2372FB",
"[. c #2874F7",
"{. c #3379F7",
"}. c #467FC3",
"|. c #5F85AC",
" X c #7696A5",
".X c #3983D1",
"XX c #3686E8",
"oX c #3687F1",
"OX c #4C90D5",
"+X c #4799FC",
"@X c #4C95ED",
"#X c #58A6FB",
"$X c #53A6F6",
"%X c #63ADFF",
"&X c #64A7F5",
"*X c #6CB4FF",
"=X c #69B6FE",
"-X c #73BEFF",
";X c #78C4FF",
":X c #A9BB91",
">X c #92AFB4",
",X c #93AB85",
"<X c #B5C582",
"1X c #B3CAAC",
"2X c #D8DA86",
"3X c #C4D488",
"4X c #E5DA87",
"5X c #D8E68B",
"6X c #E7E484",
"7X c #F9EB88",
"8X c #FDF484",
"9X c #FDF48B",
"0X c #FCF889",
"qX c #E7E79A",
"wX c #FDF493",
"eX c #FEFB94",
"rX c #FCF59C",
"tX c #FEFB9C",
"yX c #F6F698",
"uX c #EDF092",
"iX c #D4E6B6",
"pX c #E8EBA8",
"aX c #FCF6A3",
"sX c #FDF4AC",
"dX c #FCFAA8",
"fX c #FDF5B3",
"gX c #FFFBB3",
"hX c #FEF9BC",
"jX c #FCF7BB",
"kX c #EDEFB2",
"lX c #8CAECD",
"zX c #A8BBE2",
"xX c #80BFFF",
"cX c #B1CDCC",
"vX c #84CAFF",
"bX c #84D1FF",
"nX c #AAC7E9",
"mX c #C9DDD7",
"MX c #CFE7D2",
"NX c #ECF9C8",
"BX c #FFFBC4",
"VX c #FFFCCC",
"CX c #F9F6C8",
"ZX c #FFFDD3",
"AX c #FDFCDB",
"SX c #F8F9D5",
"DX c #EBF5CB",
"FX c #C3D9E9",
"GX c #D4EEED",
"HX c #EAF9EA",
"JX c #FDFCE5",
"KX c #EBFBF5",
"LX c #F8FDF8",
/* pixels */
"`.`.[.'.'.A.Y.R.Q.!.!.Q.K.(.^./.p.t.e.e.<.r.<.e.:.:.:.:.<.<.,.t.l.~.k.^.[._.F.].'.`.'.'.`.T.T.T.T.T.",
"`.Y.`.A.'.Y.T.R.R.I.Q.W.H.~.D.z.j.e.<.,.<.j.b.n.).).n.j.1.<.:.:.e.p.(.b.(.G.[.P.].`.A.'.T.Y.T.R.T.T.",
"W.Q.T.A.`.T.T.R.!.U.H.D.~.l.q.<.<.j.oX#X=X=X=X=X%X%X*X-X;X=X@X.X,.:.e.t.b.b.[.G.T.T.`.T.I.T.W.R.R.W.",
"Q.Q.W.I.`.Y.T.P.I.[.~.t.>.>.z.XX+X@X$X$X@X.X.X}.c.OXOXOX.X$X;X;X*X#Xx.O.<.t.b.^.U.U.U.U.U.W.R.E.W.T.",
"Q.Q.Q.U.`.P.`.'._.p.t.,.,.XX$X+XXXn.j.7.=.%.$ & & # # ;.7.7.7.7.%X*X-X%Xj.:.<.v.(.[.J.J.T.T.F.`.T.T.",
"Q.Q.I.Q.P.P.'.[./.e.>.n.+XoXl.n.5.=.&.;.* o   - < - ; o o # & -.-.}.&X*X;XXX1.:.t.v.^.I.T.`.U.U.W.T.",
"R.R.I.!.H._.'.S.+.e.(.XXn.x.7.&.X = : B A 2X6X/ ) ) } 2X<XV < ; o $ =.OX%X;X#X5.2.j.^.^.H.].].`.T.T.",
"T.W.E.K.U.[.V.w.t.{.XXn..X=.+ X B A 6X! D D D a S S S D ) } ! 3XV ; o ;.7.&X-X&X6.:.e.^.(.I.T.T.`.T.",
"`.Y.W.E.!.z.r.q.(.~.n.x.%.o 1 ~ | J Z S S D ( | ( ' ' ^ D Z D ~ / 2XV   X -.OXnX=X6.:.r.K.!.!.].T.`.",
"`.L.W.E.u.r.r.H.(.v.x.%.* V ! F 3 3 H ` ..0XwXtXtXtXtXeX9X..( D S J ) C : % ;.OXvX$X5.<.p.J.E.Q.T.T.",
"I.W.P.I.i.<.l.v.j.x.O > A ~ S 3 K ` X.0XeXeXrXrXgXdXdXdXdXtXeX0X^ D G J ~ B o ;.OX;X=X<.<.z.[.J.U.`.",
"!.W.F.J.q.l.l.m..XO 1 A ) a f T ` 8X8X0X9XtXtXrXyXrXtXyXeXeXeXeXeX..G a K 6X: X ;.&XvXOX<.>.~.[.U.T.",
"Q.K.J.i.r.K.h.c.%.* C } s 5 T ` ....8X8X8X9X9X7X9X9X9X8X8X8X8XX.eXeX8X( p J ~ 1 @ 7.&XxXm.:.f./.'.T.",
"K.K.i.r.k.v.b.#.$ :XuXS s U R _ ...... ............. .[  .X.X.X.} 0X| 8XI 2 ) ~ > + }.xX&X2.t.S._.`.",
"l.v.<.z.(.~.m.O. XiX} a E W W { ` ` [  . .{ { { [ [ X.X. . .{ { R X.^ ..[ H 3 ^ :XX ;.OX;Xm.,.^._.Y.",
"n.<.r.k.(./.4.0.MXNX6X .X.{ { ] ] _ _ _ ] ] ] T ] T T T T ] _ _ R R X. ._ Y 4 a / B @ }.;X=X,.>._.'.",
"l.e.i.G.'.h.*.zXKXkXaXrXuXX.{ _ _ T T W T T Y W E E P E E P Y P W E I E E E g f G ~ X &.OX;X.X<./.'.",
"l.<.i.{.S.x.&.KXJXDXBXgXyX0X ._ T P Y P P Y P P P P P U P P P P U U v v U U x g f ~ 1 @ 7.;X$X5.d.[.",
"j.e.s.^.h.#.|.SXJXJXZXBXdXyX7X{ R P L L L L L L v L v v v L P L n c n c n U v g p F C X -.=X;X<.r.^.",
"j.t././.M.&.cXiXSXSXJXZXjXrX9X..T P L L v x b x c c c c c v v c c l c l n c n x 8 S ~ . O .X;Xj.q./.",
"t.r.H.v.3.& iXuXkXSXJXJXVXfXaX8X_ P L b x k x c c l j j l l c c l j l l l k k c 8 s F . $ 6.;XoX>.~.",
"r.z.H.n.$.> <XuXqXjXSXJXZXBXfXwX| Y L v c l k l j j y y y y j j j j j j y h k k i 8 Q < $ 7.=X+X>.p.",
"q.~.k.j.%.: 5XJ } yXjXSXZXVXBXdX8X` Y L c j k j h t y r e r y y y j y y r t h h 9 8 R M # 3.%X#X:.h.",
"q.z.n.c.$ < } f Q | uXsXBXBXVXjXrX8X` P c k h t t r r e e q w w t t w r w r r 9 9 5 H N @ 6.%X$X:.t.",
"q.^.l.c.$ , ( g b R | 7XaXjXVXZXhXaX8X_ U m j u r w w e q q q q r r w e w 6 w r 7 8 I N @ 4.&X#X2.1.",
"q.z.(.M.&., ( f d v P _ 8XrXBXZXZXBXrX..R v z y r w e e q q q q 6 6 6 q q 6 w 6 7 8 H M % M.#X#X:.1.",
"q.k.^.x.*.1 / f d x x v T 8XdXBXAXVXjXrX .R c z u e w w q 6 6 q q q q q q 6 q 6 0 8 I M @ x.#X&X2.4.",
"r.~.D.b.*.9.4XK f k k j U W 9XfXCXSXBXgXeX .Y c j u e w q w w q q q q q q q q 6 9 8 H N @ 4.&X#X>.t.",
"t.p./.b.M.8.kX( f z 9 i z U { 9XsXBXBXhXfXwX .Y n j y u r w w q 6 q q 6 q q q e 9 p Q < $ M.&Xm.1.t.",
"b.q./.(.}.@.iX4XJ g z 9 i m I { wXsXBXCXCXfXwX| E m z y r u w q e q 6 6 q e q e 8 G 5X. ;.M.*Xb.,.h.",
"d.q./.~.m.@.>XqXo.I l u i z m U ' wXfXCXAXSXhX0X{ U m z u e e e 6 w q 7 e e e 7 5 o.<Xo 7.m.&Xh.e.h.",
"d.a.V.~./.#.8.CX} J L z i j j z E ` rXfXSXAXVXgXuX{ I b z i e q e w q e e e e 7 s } ,X# 6.XX@Xt.w.S.",
"~.u.u.H.^.x.$ FXkX} K b k 9 h i b R { wXfXVXAXZXhXaX..Q b h r w w e q e r w 6 5 R pX> #.x.#X(.>.a.V.",
"^.u.g.].^.j.@. XHXpX( I x 9 9 j l v R { rXgXVXAXZXhXyX..Y c t w w q e q 6 7 0 g 0X,XO m.v.$Xj.>.V.Z.",
"_.F.i.!.D.b.3.&.FXDXqX^ L d t u j j b P { rXgXVXVXBXgX9X` P x t e e q q 7 9 8 Q 5X* 7.n.oXXXr.p.G._.",
"_.`.N.g.V./.m.@.8.KXZX7X` L d t r t z b E  .eXgXBXVXhXdX8X` P c j y w 0 9 2 Q uX1 O 6.k.oXl.>.p.P.P.",
"`.'.F.i.J.k.~.t.#.lXKXCX7XR Y d t r h k U W { yXgXBXZXBXsXwX| R U t d d 4 K / 1X& 7.j.oX{.r.z._.P.P.",
"'.`.H.u.i.N.G./.b.@.nXHXpX/ J P k t h z m b W { yXhXZXSXBXsXyX{ I P x f G 7XMX# %.j.XXoXp.q.B.B.L.Y.",
"'.]._.J.i.u.L.[./.h.@.zXHXNX2X^ H x m z z z b E X.rXjXCXCXBXaX7X8XJ D / kX1X% $..Xn.).v.q._.F.C.Y.Y.",
"`.`.U._.I.g.L.R.'.b.x.%.lXHXNXpX^ R I m z z z b _ 8XsXjXCXBXjXsXqX6XfXkX1X8.@.m.z.oXv.e.s.L.L.R.Y.Y.",
"E.I.U.E.L.N.N.L.'.~.v.4.@.|.FXKXpX/ J s b z z I K ( 7XaXfXCXSXSXkXAXGX>X$ #.).D.K.H.e.d.Z.Y.Y.I.T.T.",
"U.U.U.T.P.N.N.N.y._.~.v.M.#.%.lXGXDXfX! F s s S ^ ! 4XqXCXAXLXLXKXzX8.*.6.b.~.{.D.l.w.V.C.A.L.T.T.Y.",
"E.U.T.Y.Y.P.C.u.i.u.J.^.v.b.5.$.-.>XmXMXNXpXuX5XqXpXNXSXHXKXFXzX|.@.#.b.~.^.[.y.s.B.g.G.C.C.L.T.Y.Y.",
"K.U.U.Y.T.T.G.u.y.y.N.G.^.(.~.v.1.#.&.8. XcXcXMXmXmXcXzXlX0.*.@.3.4./._.H.D.Z.Z.C.C.B.B.F.T.`.P.`.T.",
"U.U.T.T.T.T.U.G.F.i.i.u.B.^.[.D.(.b.t.1.3.@.&.&.O %.&.3.3.4.x.b.b.S././.d.D.B.Z.A.A.F.F.F.].`.T.T.T.",
"T.I.U.T.T.Y.I.`.G.s.y.s.s.y.J._.H.^.[././.j.t.5.x.x.j.b.b./././.{.'._.V.p.a.B.A.C.C.J.K.U.U.T.`.T.T.",
"T.T.Y.W.T.R.T.T.`.G.s.d.y.t.i.s.d.D.^././.^.[.H.^.D.k.D.^._.S.S.A.Z.V.d.f.d.V.C.C.C.U._.W.T.Y.`.T.T.",
"`.T.T.Y.R.T.T.Y.P.'.^.s.s.d.s.s.f.i.s.s.A.P.].U.W.U.U.G.Z.a.a.d.Z.Z.d.d.d.a.B.C.P.L.].I.T.T.T.T.W.R.",
"T.T.T.R.W.T.R.Y.T.P.P.G._.a.s.S.d.f.a.a.a.a.Z.Z.N.a.B.B.s.a.f.w.d.d.V.a.a.B.L.P.T.T.P.U.`.T.T.T.T.T.",
"T.T.T.T.T.I.T.I.T.P.`._.'.Z.s.S.S.h.h.f.a.a.V.V.G.B.a.a.f.d.S.S.h.d.d.B.C.C.P.L.T.Y.U.T.U.T.T.T.T.T."
};
